<?xml version="1.0"?>
<svg xmlns="http://www.w3.org/2000/svg" xmlns:xlink="http://www.w3.org/1999/xlink" xmlns:svgjs="http://svgjs.com/svgjs" version="1.1" width="512" height="512" x="0" y="0" viewBox="0 0 24 60" style="enable-background:new 0 0 512 512" xml:space="preserve" class="">
  <g>
    <path xmlns="http://www.w3.org/2000/svg" d="m15 51-3 8-3-8v-30h6z" fill="#f9f9f9" data-original="#e7eced" style="" class=""/>
    <circle xmlns="http://www.w3.org/2000/svg" cx="12" cy="12" fill="#ebba16" r="11" data-original="#ebba16" style="" class=""/>
    <g xmlns="http://www.w3.org/2000/svg" fill="#4d007e">
      <path d="m12 24c-6.617 0-12-5.383-12-12s5.383-12 12-12 12 5.383 12 12-5.383 12-12 12zm0-22c-5.514 0-10 4.486-10 10s4.486 10 10 10 10-4.486 10-10-4.486-10-10-10z" fill="#584096" data-original="#4d007e" style="" class=""/>
      <path d="m12 60c-.417 0-.79-.259-.936-.648l-3-8c-.043-.113-.064-.232-.064-.352v-28c0-.553.448-1 1-1h6c.552 0 1 .447 1 1v28c0 .12-.021.239-.064.352l-3 8c-.146.389-.519.648-.936.648zm-2-9.182 2 5.334 2-5.334v-26.818h-4zm5 .182h.01z" fill="#584096" data-original="#4d007e" style="" class=""/>
      <path d="m6 13c-.552 0-1-.447-1-1 0-3.859 3.14-7 7-7 .552 0 1 .447 1 1s-.448 1-1 1c-2.757 0-5 2.243-5 5 0 .553-.448 1-1 1z" fill="#584096" data-original="#4d007e" style="" class=""/>
      <path d="m12 59c-.552 0-1-.447-1-1v-9c0-.553.448-1 1-1s1 .447 1 1v9c0 .553-.448 1-1 1z" fill="#584096" data-original="#4d007e" style="" class=""/>
    </g>
  </g>
</svg>
